# xmcd
#
# Track frame offsets: 
#        150
#        12684
#        25092
#        36047
#        47498
#        55819
#        65760
#        75624
#        85706
#        95848
#        104241
#        115075
#        127513
#
# Disc length: 1855 seconds
#
# Revision: 0
# Processed by: cddbd v1.5.2PL0 Copyright (c) Steve Scherf et al.
# Submitted via: ExactAudioCopyFreeDBPlugin 1.0
#
DISCID=a4073d0d
DTITLE=Johnny Cash - The Best Of Johnny Cash
DYEAR=2010
DGENRE=Country
TTITLE0=Mike Marshall and Chris Thile-Live Duets
TTITLE1=I Walk The Line
TTITLE2=Cry, Cry, Cry
TTITLE3=Big River
TTITLE4=Wreck of the Old 97'
TTITLE5=Ballad of a Teenage Queen
TTITLE6=Rock Island Line
TTITLE7=Get Rhythm
TTITLE8=Hey Porter
TTITLE9=Guess Things Happen That Way
TTITLE10=Fool's Hall of Fame
TTITLE11=Give My Love To Rose
TTITLE12=So Doggone Lonesome
EXTD=
EXTT0=
EXTT1=
EXTT2=
EXTT3=
EXTT4=
EXTT5=
EXTT6=
EXTT7=
EXTT8=
EXTT9=
EXTT10=
EXTT11=
EXTT12=
PLAYORDER=
